<svg width="12" height="12" viewBox="0 0 12 12" fill="none" xmlns="http://www.w3.org/2000/svg">
<path fill-rule="evenodd" clip-rule="evenodd" d="M5.00002 1.50003C4.86741 1.50003 4.74024 1.55271 4.64647 1.64648C4.5527 1.74025 4.50002 1.86742 4.50002 2.00003V2.50001H7.50002V2.00003C7.50002 1.86742 7.44734 1.74025 7.35357 1.64648C7.25981 1.55271 7.13263 1.50003 7.00002 1.50003H5.00002ZM8.50002 2.50001V2.00003C8.50002 1.60221 8.34199 1.22067 8.06068 0.93937C7.77938 0.658066 7.39785 0.500031 7.00002 0.500031H5.00002C4.6022 0.500031 4.22066 0.658066 3.93936 0.93937C3.65806 1.22067 3.50002 1.60221 3.50002 2.00003V2.50001H1.5C1.22386 2.50001 1 2.72387 1 3.00001C1 3.27615 1.22386 3.50001 1.5 3.50001H2L2.00002 10C2.00002 10.3979 2.15805 10.7794 2.43936 11.0607C2.72066 11.342 3.10219 11.5 3.50002 11.5H8.50002C8.89785 11.5 9.27938 11.342 9.56068 11.0607C9.84199 10.7794 10 10.3979 10 10V3.50001H10.5C10.7761 3.50001 11 3.27615 11 3.00001C11 2.72387 10.7761 2.50001 10.5 2.50001H8.50002ZM3.99594 3.50001L3 3.50001L3.00002 10C3.00002 10.1326 3.0527 10.2598 3.14647 10.3536C3.24023 10.4474 3.36741 10.5 3.50002 10.5H8.50002C8.63263 10.5 8.75981 10.4474 8.85357 10.3536C8.94734 10.2598 9.00002 10.1326 9.00002 10V3.50003L8.00215 3.50003C8.00144 3.50003 8.00073 3.50003 8.00002 3.50003C7.99931 3.50003 7.9986 3.50003 7.99789 3.50003L4.0041 3.50001C4.00274 3.50003 4.00138 3.50003 4.00002 3.50003C3.99866 3.50003 3.9973 3.50003 3.99594 3.50001ZM4.99998 5.00003C5.27612 5.00003 5.49998 5.22389 5.49998 5.50003V8.50003C5.49998 8.77617 5.27612 9.00003 4.99998 9.00003C4.72384 9.00003 4.49998 8.77617 4.49998 8.50003V5.50003C4.49998 5.22389 4.72384 5.00003 4.99998 5.00003ZM7.00002 5.00003C7.27616 5.00003 7.50002 5.22389 7.50002 5.50003V8.50003C7.50002 8.77617 7.27616 9.00003 7.00002 9.00003C6.72388 9.00003 6.50002 8.77617 6.50002 8.50003V5.50003C6.50002 5.22389 6.72388 5.00003 7.00002 5.00003Z" fill="#383838"/>
</svg>
